<?xml version="1.0" standalone="no"?>
<!DOCTYPE svg PUBLIC "-//W3C//DTD SVG 20010904//EN"
 "http://www.w3.org/TR/2001/REC-SVG-20010904/DTD/svg10.dtd">
<svg version="1.0" xmlns="http://www.w3.org/2000/svg"
 width="260.000000pt" height="260.000000pt" viewBox="0 0 260.000000 260.000000"
 preserveAspectRatio="xMidYMid meet">
<metadata>
Created by potrace 1.11, written by Peter Selinger 2001-2013
</metadata>
<g transform="translate(0.000000,260.000000) scale(0.100000,-0.100000)"
fill="#000000" stroke="none">
<path d="M0 1300 l0 -1300 1300 0 1300 0 0 1300 0 1300 -1300 0 -1300 0 0
-1300z m669 931 c127 -39 237 -138 299 -268 l37 -78 4 -167 3 -168 -151 0
-151 0 0 128 c0 146 -13 186 -73 239 -86 76 -211 47 -274 -63 -29 -50 -31
-141 -4 -199 27 -60 82 -103 241 -189 80 -43 168 -94 196 -112 73 -48 151
-135 182 -201 24 -54 27 -68 26 -188 0 -153 -14 -201 -91 -303 -96 -125 -205
-182 -364 -190 -150 -7 -267 38 -366 140 -101 106 -143 214 -143 374 l0 104
149 0 149 0 4 -98 c3 -84 6 -104 27 -134 66 -95 187 -116 267 -46 67 59 93
152 60 216 -25 47 -67 78 -239 176 -203 115 -257 153 -307 220 -84 113 -115
216 -108 368 4 85 9 105 41 172 60 127 171 227 295 267 78 25 211 25 291 0z
m1331 -716 l0 -715 263 -2 262 -3 3 -152 3 -153 -416 0 -415 0 0 863 c0 475 3
867 7 870 3 4 71 7 150 7 l143 0 0 -715z m-540 190 l0 -75 -105 0 c-99 0 -107
-2 -130 -25 -19 -18 -25 -35 -25 -65 0 -90 27 -100 268 -100 l172 0 0 -70 0
-70 -60 0 -60 0 -2 -207 -3 -208 -150 0 c-134 1 -154 3 -190 22 -98 52 -144
136 -145 261 0 84 17 138 57 184 14 15 13 23 -11 69 -52 105 -28 231 57 305
54 45 80 52 215 53 l112 1 0 -75z"/>
<path d="M1250 1289 c-56 -23 -70 -47 -70 -123 0 -40 6 -78 13 -86 28 -36 62
-50 119 -50 l58 0 0 135 0 135 -47 -1 c-27 0 -59 -5 -73 -10z"/>
</g>
</svg>
